<svg xmlns="http://www.w3.org/2000/svg" width="32" height="32" viewBox="0 0 32 32">
  <metadata><?xpacket begin="﻿" id="W5M0MpCehiHzreSzNTczkc9d"?>
<x:xmpmeta xmlns:x="adobe:ns:meta/" x:xmptk="Adobe XMP Core 5.6-c140 79.160451, 2017/05/06-01:08:21        ">
   <rdf:RDF xmlns:rdf="http://www.w3.org/1999/02/22-rdf-syntax-ns#">
      <rdf:Description rdf:about=""/>
   </rdf:RDF>
</x:xmpmeta>
                                                                                                    
                                                                                                    
                                                                                                    
                                                                                                    
                                                                                                    
                                                                                                    
                                                                                                    
                                                                                                    
                                                                                                    
                                                                                                    
                                                                                                    
                                                                                                    
                                                                                                    
                                                                                                    
                                                                                                    
                                                                                                    
                                                                                                    
                                                                                                    
                                                                                                    
                                                                                                    
                           
<?xpacket end="w"?></metadata>
<defs>
    <style>
      .cls-1 {
        fill: #666d89;
        fill-rule: evenodd;
      }
    </style>
  </defs>
  <path id="bubble" class="cls-1" d="M16,7C10.037,7,5,10.206,5,14a0.5,0.5,0,0,0,1,0c0-3.2,4.673-6,10-6A0.5,0.5,0,0,0,16,7Zm0-5C7.163,2,0,7.373,0,14c0,4.127,2.779,7.766,7.008,9.926C7.008,23.953,7,23.971,7,24c0,1.793-1.339,3.723-1.928,4.736h0A0.9,0.9,0,0,0,5.906,30a2.49,2.49,0,0,1,.255-0.012c3.125-.512,6.069-3.383,6.753-4.216A21.269,21.269,0,0,0,16,26c8.836,0,16-5.373,16-12S24.836,2,16,2Zm0,22a19.353,19.353,0,0,1-2.8-.207,1.937,1.937,0,0,0-.29-0.022,2,2,0,0,0-1.546.731,13.437,13.437,0,0,1-3.085,2.539A7.824,7.824,0,0,0,9,24.11c0.006-.064.009-0.129,0.009-0.184a2,2,0,0,0-1.09-1.781C4.212,20.252,2,17.207,2,14,2,8.486,8.28,4,16,4S30,8.486,30,14,23.72,24,16,24Z"/>
</svg>
