<svg xmlns="http://www.w3.org/2000/svg" width="32" height="32" viewBox="0 0 32 32">
  <metadata><?xpacket begin="﻿" id="W5M0MpCehiHzreSzNTczkc9d"?>
<x:xmpmeta xmlns:x="adobe:ns:meta/" x:xmptk="Adobe XMP Core 5.6-c140 79.160451, 2017/05/06-01:08:21        ">
   <rdf:RDF xmlns:rdf="http://www.w3.org/1999/02/22-rdf-syntax-ns#">
      <rdf:Description rdf:about=""/>
   </rdf:RDF>
</x:xmpmeta>
                                                                                                    
                                                                                                    
                                                                                                    
                                                                                                    
                                                                                                    
                                                                                                    
                                                                                                    
                                                                                                    
                                                                                                    
                                                                                                    
                                                                                                    
                                                                                                    
                                                                                                    
                                                                                                    
                                                                                                    
                                                                                                    
                                                                                                    
                                                                                                    
                                                                                                    
                                                                                                    
                           
<?xpacket end="w"?></metadata>
<defs>
    <style>
      .cls-1 {
        fill: #666d89;
        fill-rule: evenodd;
      }
    </style>
  </defs>
  <path id="bulb" class="cls-1" d="M16,0A11,11,0,0,0,5,11c0,4.031,3.689,8.3,5.031,12.055C12.034,28.651,11.813,32,16,32c4.25,0,3.965-3.334,5.969-8.922C23.316,19.319,27,15,27,11A11,11,0,0,0,16,0Zm2.593,27.176-4.959.62c-0.177-.513-0.367-1.113-0.6-1.893,0-.01-0.007-0.022-0.009-0.031l6.189-.773c-0.088.3-.183,0.606-0.264,0.884C18.821,26.431,18.7,26.821,18.593,27.176Zm-5.857-2.267c-0.182-.6-0.387-1.236-0.615-1.908h7.766c-0.122.36-.245,0.719-0.352,1.059ZM16,30a1.738,1.738,0,0,1-2-1.25l4.238-.53C17.628,29.873,17.181,30,16,30Zm4.672-9H11.339c-0.5-1.079-1.1-2.16-1.686-3.217C8.349,15.448,7,13.033,7,11a9,9,0,1,1,18,0c0,2.017-1.35,4.446-2.655,6.795C21.76,18.849,21.167,19.926,20.672,21ZM16,5a6.006,6.006,0,0,0-6,6,0.5,0.5,0,0,0,1,0,5.006,5.006,0,0,1,5-5A0.5,0.5,0,1,0,16,5Z"/>
</svg>
