<svg xmlns="http://www.w3.org/2000/svg" width="32" height="32" viewBox="0 0 32 32">
  <metadata><?xpacket begin="﻿" id="W5M0MpCehiHzreSzNTczkc9d"?>
<x:xmpmeta xmlns:x="adobe:ns:meta/" x:xmptk="Adobe XMP Core 5.6-c140 79.160451, 2017/05/06-01:08:21        ">
   <rdf:RDF xmlns:rdf="http://www.w3.org/1999/02/22-rdf-syntax-ns#">
      <rdf:Description rdf:about=""/>
   </rdf:RDF>
</x:xmpmeta>
                                                                                                    
                                                                                                    
                                                                                                    
                                                                                                    
                                                                                                    
                                                                                                    
                                                                                                    
                                                                                                    
                                                                                                    
                                                                                                    
                                                                                                    
                                                                                                    
                                                                                                    
                                                                                                    
                                                                                                    
                                                                                                    
                                                                                                    
                                                                                                    
                                                                                                    
                                                                                                    
                           
<?xpacket end="w"?></metadata>
<defs>
    <style>
      .cls-1 {
        fill: #666d89;
        fill-rule: evenodd;
      }
    </style>
  </defs>
  <path id="pen" class="cls-1" d="M29.4,2.58A8.544,8.544,0,0,0,23.449,0,6.541,6.541,0,0,0,18.78,1.877l-4.867,4.9c-0.015.014-.032,0.023-0.047,0.038s-0.013.018-.02,0.026l0,0L3.518,17.256a4.024,4.024,0,0,0-1.013,1.7L0.156,27.469A6.866,6.866,0,0,0,0,28.5,3.5,3.5,0,0,0,3.5,32a7.124,7.124,0,0,0,1.157-.188l8.478-2.229a4.03,4.03,0,0,0,1.705-1.016L30.107,13.186C32.884,10.406,32.571,5.75,29.4,2.58ZM16.015,23.8a8.143,8.143,0,0,0-.719-2.628l9.454-9.453a4.875,4.875,0,0,1-.985,5c-0.008.008-.017,0.013-0.025,0.02l0.013,0.013-7.728,7.789C16.025,24.293,16.037,24.049,16.015,23.8Zm-1.221-3.54a9.052,9.052,0,0,0-1.322-1.728,8.964,8.964,0,0,0-2.044-1.492L20.96,7.5a6.909,6.909,0,0,1,3.378,3.208Zm-4.308-3.693a7.972,7.972,0,0,0-2.868-.6l7.7-7.762a4.8,4.8,0,0,1,4.588-1.062ZM4.168,29.873A4.9,4.9,0,0,1,3.489,30,1.5,1.5,0,0,1,2,28.5a5.073,5.073,0,0,1,.1-0.562l1.053-3.814a4.572,4.572,0,0,1,3.34,1.383A4.566,4.566,0,0,1,7.888,28.9Zm4.706-1.236A5.583,5.583,0,0,0,7.2,24.8a5.7,5.7,0,0,0-3.766-1.7l1-3.607a1.973,1.973,0,0,1,.391-0.685c2.006-1.435,5.091-1.012,7.234,1.133,2.267,2.266,2.617,5.586.871,7.568a2.131,2.131,0,0,1-.359.157ZM28.692,11.773l-1.685,1.7c0-.225.027-0.443,0.007-0.674a8.611,8.611,0,0,0-2.543-5.269,8.537,8.537,0,0,0-5.929-2.571L20.2,3.286A4.547,4.547,0,0,1,23.449,2a6.542,6.542,0,0,1,4.533,2,6.586,6.586,0,0,1,2.006,4.168A4.582,4.582,0,0,1,28.692,11.773Z"/>
</svg>
