<svg xmlns="http://www.w3.org/2000/svg" width="32" height="32" viewBox="0 0 32 32">
  <metadata><?xpacket begin="﻿" id="W5M0MpCehiHzreSzNTczkc9d"?>
<x:xmpmeta xmlns:x="adobe:ns:meta/" x:xmptk="Adobe XMP Core 5.6-c140 79.160451, 2017/05/06-01:08:21        ">
   <rdf:RDF xmlns:rdf="http://www.w3.org/1999/02/22-rdf-syntax-ns#">
      <rdf:Description rdf:about=""/>
   </rdf:RDF>
</x:xmpmeta>
                                                                                                    
                                                                                                    
                                                                                                    
                                                                                                    
                                                                                                    
                                                                                                    
                                                                                                    
                                                                                                    
                                                                                                    
                                                                                                    
                                                                                                    
                                                                                                    
                                                                                                    
                                                                                                    
                                                                                                    
                                                                                                    
                                                                                                    
                                                                                                    
                                                                                                    
                                                                                                    
                           
<?xpacket end="w"?></metadata>
<defs>
    <style>
      .cls-1 {
        fill: #666d89;
        fill-rule: evenodd;
      }
    </style>
  </defs>
  <path id="heart" class="cls-1" d="M29.192,4.792A9.632,9.632,0,0,0,16,4.5a9.631,9.631,0,0,0-13.191.288,9.4,9.4,0,0,0,0,13.4l11.053,10.93a3.047,3.047,0,0,0,4.278,0l11.053-10.93A9.4,9.4,0,0,0,29.192,4.792ZM27.765,16.781L16.713,27.711a1.015,1.015,0,0,1-1.425,0L4.235,16.781a7.429,7.429,0,0,1,0-10.579A7.6,7.6,0,0,1,14.644,5.98L16,7.2,17.356,5.98A7.6,7.6,0,0,1,27.765,6.2,7.429,7.429,0,0,1,27.765,16.781ZM9.252,7.026h0A4.247,4.247,0,0,0,5,11.271H5a0.5,0.5,0,0,0,1,0H6A3.248,3.248,0,0,1,9.251,8.025h0A0.5,0.5,0,1,0,9.252,7.026Z"/>
</svg>
