<svg xmlns="http://www.w3.org/2000/svg" width="32" height="32" viewBox="0 0 32 32">
  <metadata><?xpacket begin="﻿" id="W5M0MpCehiHzreSzNTczkc9d"?>
<x:xmpmeta xmlns:x="adobe:ns:meta/" x:xmptk="Adobe XMP Core 5.6-c140 79.160451, 2017/05/06-01:08:21        ">
   <rdf:RDF xmlns:rdf="http://www.w3.org/1999/02/22-rdf-syntax-ns#">
      <rdf:Description rdf:about=""/>
   </rdf:RDF>
</x:xmpmeta>
                                                                                                    
                                                                                                    
                                                                                                    
                                                                                                    
                                                                                                    
                                                                                                    
                                                                                                    
                                                                                                    
                                                                                                    
                                                                                                    
                                                                                                    
                                                                                                    
                                                                                                    
                                                                                                    
                                                                                                    
                                                                                                    
                                                                                                    
                                                                                                    
                                                                                                    
                                                                                                    
                           
<?xpacket end="w"?></metadata>
<defs>
    <style>
      .cls-1 {
        fill: #666d89;
        fill-rule: evenodd;
      }
    </style>
  </defs>
  <path id="phone" class="cls-1" d="M24,0H8A3,3,0,0,0,5,3V29a3,3,0,0,0,3,3H24a3,3,0,0,0,3-3V3A3,3,0,0,0,24,0Zm1,29a1,1,0,0,1-1,1H8a1,1,0,0,1-1-1V27H25v2Zm0-3H7V6H25V26ZM25,5H7V3A1,1,0,0,1,8,2H24a1,1,0,0,1,1,1V5ZM18,3.5a0.5,0.5,0,0,1-.5.5h-3A0.5,0.5,0,0,1,14,3.5h0A0.5,0.5,0,0,1,14.5,3h3a0.5,0.5,0,0,1,.5.5h0Zm-1,25a0.5,0.5,0,0,1-.5.5h-1a0.5,0.5,0,0,1-.5-0.5h0a0.5,0.5,0,0,1,.5-0.5h1a0.5,0.5,0,0,1,.5.5h0Z"/>
</svg>
