<svg xmlns="http://www.w3.org/2000/svg" width="32" height="32" viewBox="0 0 32 32">
  <metadata><?xpacket begin="﻿" id="W5M0MpCehiHzreSzNTczkc9d"?>
<x:xmpmeta xmlns:x="adobe:ns:meta/" x:xmptk="Adobe XMP Core 5.6-c140 79.160451, 2017/05/06-01:08:21        ">
   <rdf:RDF xmlns:rdf="http://www.w3.org/1999/02/22-rdf-syntax-ns#">
      <rdf:Description rdf:about=""/>
   </rdf:RDF>
</x:xmpmeta>
                                                                                                    
                                                                                                    
                                                                                                    
                                                                                                    
                                                                                                    
                                                                                                    
                                                                                                    
                                                                                                    
                                                                                                    
                                                                                                    
                                                                                                    
                                                                                                    
                                                                                                    
                                                                                                    
                                                                                                    
                                                                                                    
                                                                                                    
                                                                                                    
                                                                                                    
                                                                                                    
                           
<?xpacket end="w"?></metadata>
<defs>
    <style>
      .cls-1 {
        fill: #666d89;
        fill-rule: evenodd;
      }
    </style>
  </defs>
  <path id="star" class="cls-1" d="M31.881,11.557a2.3,2.3,0,0,0-1.843-1.511L21.712,8.808l-3.62-7.514a2.338,2.338,0,0,0-4.184,0L10.289,8.808,1.962,10.046A2.3,2.3,0,0,0,.12,11.557a2.205,2.205,0,0,0,.537,2.285l6.1,6.093L5.344,28.386a2.226,2.226,0,0,0,.948,2.2,2.365,2.365,0,0,0,2.449.131L16,26.812l7.26,3.908a2.365,2.365,0,0,0,2.449-.131,2.228,2.228,0,0,0,.948-2.2l-1.416-8.451,6.1-6.093A2.208,2.208,0,0,0,31.881,11.557Zm-8.293,6.807a2.213,2.213,0,0,0-.626,1.934l1.415,8.452-7.259-3.907a2.363,2.363,0,0,0-2.235,0l-7.26,3.907L9.039,20.3a2.213,2.213,0,0,0-.626-1.934l-6.1-6.092,8.326-1.24a2.307,2.307,0,0,0,1.743-1.268L16,2.251l3.62,7.513a2.305,2.305,0,0,0,1.742,1.268l8.327,1.24Z"/>
</svg>
